<svg width="13" height="12" viewBox="0 0 13 12" fill="none" xmlns="http://www.w3.org/2000/svg">
<path d="M8.59663 7.4066C9.40909 6.52022 9.81894 5.37827 9.74052 4.21945C9.6621 3.06063 9.10148 1.97463 8.17584 1.18847C7.2502 0.402309 6.0312 -0.0231692 4.77363 0.000974037C3.51607 0.0251172 2.31728 0.497013 1.42786 1.31802C0.53843 2.13903 0.0272103 3.2456 0.00105521 4.40643C-0.0250999 5.56726 0.435834 6.69249 1.28751 7.54693C2.13918 8.40136 3.31568 8.91886 4.57107 8.99125C5.82646 9.06363 7.06357 8.68531 8.02382 7.93535L12.3098 11.8954L12.8826 11.3666L8.59663 7.4066ZM4.87945 8.2541C4.07596 8.2541 3.29052 8.03417 2.62244 7.62212C1.95437 7.21006 1.43367 6.62439 1.12619 5.93917C0.818705 5.25394 0.738254 4.49995 0.895007 3.77252C1.05176 3.04509 1.43867 2.3769 2.00683 1.85245C2.57498 1.32801 3.29884 0.970855 4.08689 0.82616C4.87494 0.681465 5.69177 0.755728 6.4341 1.03956C7.17642 1.32339 7.8109 1.80403 8.25729 2.42072C8.70368 3.0374 8.94195 3.76242 8.94195 4.5041C8.94195 5.49867 8.51394 6.45249 7.75207 7.15576C6.9902 7.85902 5.95689 8.2541 4.87945 8.2541Z" fill="#F4ECEC"/>
</svg>
