<svg width="35" height="35" viewBox="0 0 35 35" fill="none" xmlns="http://www.w3.org/2000/svg">
<g clip-path="url(#clip0_119_52)">
<mask id="mask0_119_52" style="mask-type:luminance" maskUnits="userSpaceOnUse" x="0" y="0" width="35" height="35">
<path d="M35 0H0V35H35V0Z" fill="white"/>
</mask>
<g mask="url(#mask0_119_52)">
<path d="M23.625 5.75V32.031" stroke="#222222" stroke-width="2"/>
<path d="M4.625 32.749H30.625" stroke="#222222" stroke-width="2" stroke-miterlimit="10"/>
<mask id="mask1_119_52" style="mask-type:alpha" maskUnits="userSpaceOnUse" x="6" y="3" width="19" height="29">
<path d="M7.62201 31.752V5.71195C7.62201 5.18195 8.05201 4.75195 8.58201 4.75195H22.672C23.202 4.75195 23.632 5.18195 23.632 5.71195V31.752M20.622 18.752C20.622 19.302 20.182 19.752 19.622 19.752C19.072 19.752 18.622 19.302 18.622 18.752C18.622 18.202 19.072 17.752 19.622 17.752C20.182 17.752 20.622 18.202 20.622 18.752Z" fill="#FF0000"/>
<path d="M7.62201 31.75V5.70795C7.62201 5.17995 8.05001 4.75195 8.57901 4.75195H22.676C23.204 4.75195 23.632 5.17995 23.632 5.70795V31.75" stroke="#222222" stroke-width="2" stroke-miterlimit="10"/>
<path d="M20.625 18.75C20.625 19.302 20.177 19.75 19.625 19.75C19.073 19.75 18.625 19.302 18.625 18.75C18.625 18.198 19.073 17.75 19.625 17.75C20.177 17.75 20.625 18.198 20.625 18.75Z" fill="#222222"/>
</mask>
<g mask="url(#mask1_119_52)">
<path d="M7.62201 31.75V5.70795C7.62201 5.17995 8.05001 4.75195 8.57901 4.75195H26.625C27.153 4.75195 27.582 5.17995 27.582 5.70795V31.75" stroke="#222222" stroke-width="2" stroke-miterlimit="10"/>
</g>
<path d="M7.62201 31.75V5.70795C7.62201 5.17995 8.05001 4.75195 8.57901 4.75195H22.676C23.204 4.75195 23.632 5.17995 23.632 5.70795V31.75" stroke="#222222" stroke-width="2" stroke-miterlimit="10"/>
<path d="M20.625 18.75C20.625 19.302 20.177 19.75 19.625 19.75C19.073 19.75 18.625 19.302 18.625 18.75C18.625 18.198 19.073 17.75 19.625 17.75C20.177 17.75 20.625 18.198 20.625 18.75Z" fill="#222222"/>
</g>
</g>
<defs>
<clipPath id="clip0_119_52">
<rect width="35" height="35" fill="white"/>
</clipPath>
</defs>
</svg>
