<svg width="45" height="45" viewBox="0 0 45 45" fill="none" xmlns="http://www.w3.org/2000/svg">
<g clip-path="url(#clip0_118_5)">
<mask id="mask0_118_5" style="mask-type:luminance" maskUnits="userSpaceOnUse" x="0" y="0" width="45" height="45">
<path d="M45 0H0V45H45V0Z" fill="white"/>
</mask>
<g mask="url(#mask0_118_5)">
<path d="M18.722 9.14212L18.901 9.24012L28.884 15.1391L27.866 16.8611L26.375 15.9791V21.0001C26.375 21.0791 26.366 21.1551 26.348 21.2291L32.975 26.2001L31.775 27.8001L30.375 26.7491V36.0001C30.375 36.5121 29.989 36.9351 29.491 36.9931L29.375 37.0001H5.37499C4.86199 37.0001 4.43899 36.6141 4.38199 36.1161L4.37499 36.0001V26.7491L2.97499 27.8001L1.77499 26.2001L8.40099 21.2291L8.38199 21.1161L8.37499 21.0001V15.9791L6.88399 16.8611L5.86599 15.1391L15.849 9.24012C16.731 8.71812 17.814 8.68612 18.722 9.14212ZM10.375 26.9991L6.37499 27.0001V35.0001L10.375 34.9991V26.9991ZM22.375 27.0001H12.375V35.0001L14.375 34.9991V30.0001C14.375 29.4871 14.761 29.0641 15.258 29.0061L15.375 29.0001H19.375C19.888 29.0001 20.31 29.3861 20.368 29.8831L20.375 30.0001V34.9991L22.375 35.0001V27.0001ZM28.375 27.0001L24.375 26.9991V34.9991L28.375 35.0001V27.0001ZM18.375 31.0001H16.375V35.0001H18.375V31.0001ZM28.042 24.9991L24.042 22.0001L22.14 21.9991L23.94 24.9991H28.042ZM6.70799 24.9991H10.809L12.609 21.9991L10.708 22.0001L6.70799 24.9991ZM19.81 22.0001H14.941L13.141 24.9991H21.609L19.81 22.0001ZM13.375 15.9991L10.375 16.0001V20.0001L13.375 19.9991V15.9991ZM19.375 15.9991H15.375V19.9991H19.375V15.9991ZM24.375 16.0001L21.375 15.9991V19.9991L24.375 20.0001V16.0001ZM16.987 10.9011L16.866 10.9621L11.726 13.9991H23.023L17.884 10.9621C17.609 10.8001 17.276 10.7791 16.987 10.9011Z" fill="#222222"/>
</g>
</g>
<defs>
<clipPath id="clip0_118_5">
<rect width="45" height="45" fill="white"/>
</clipPath>
</defs>
</svg>
