<svg width="35" height="35" viewBox="0 0 35 35" fill="none" xmlns="http://www.w3.org/2000/svg">
<g clip-path="url(#clip0_119_145)">
<mask id="mask0_119_145" style="mask-type:luminance" maskUnits="userSpaceOnUse" x="0" y="0" width="35" height="35">
<path d="M35 0H0V35H35V0Z" fill="white"/>
</mask>
<g mask="url(#mask0_119_145)">
<path d="M9.009 15.3775V29.9165C9.009 30.4805 9.466 30.9385 10.031 30.9385H33.99C34.554 30.9385 35.011 30.4805 35.011 29.9165V15.3595C35.011 15.0855 34.887 14.8265 34.674 14.6555L23.222 5.44251C22.486 4.85051 21.435 4.8525 20.701 5.4485L9.343 14.6755C9.132 14.8475 9.009 15.1055 9.009 15.3775Z" stroke="#222222" stroke-width="2" stroke-linecap="round" stroke-linejoin="round"/>
<mask id="mask1_119_145" style="mask-type:alpha" maskUnits="userSpaceOnUse" x="8" y="4" width="29" height="28">
<path d="M9.009 15.3775L9 29.0415C9 29.6055 9.457 30.0635 10.022 30.0635H33.981C34.545 30.0635 35.002 29.6055 35.002 29.0415L35.011 15.3595C35.011 15.0855 34.887 14.8265 34.674 14.6555L23.222 5.44251C22.486 4.85051 21.435 4.8525 20.701 5.4485L9.343 14.6755C9.132 14.8475 9.009 15.1055 9.009 15.3775Z" stroke="#222222" stroke-width="2" stroke-linecap="round" stroke-linejoin="round"/>
<path d="M9.009 15.3775L9 29.0415C9 29.6055 9.457 30.0635 10.022 30.0635H33.981C34.545 30.0635 35.002 29.6055 35.002 29.0415L35.011 15.3595C35.011 15.0855 34.887 14.8265 34.674 14.6555L23.222 5.44251C22.486 4.85051 21.435 4.8525 20.701 5.4485L9.343 14.6755C9.132 14.8475 9.009 15.1055 9.009 15.3775Z" fill="#FF0000"/>
</mask>
<g mask="url(#mask1_119_145)">
<mask id="mask2_119_145" style="mask-type:luminance" maskUnits="userSpaceOnUse" x="-19" y="-23" width="81" height="81">
<path d="M-18.002 -22.0703H61.998V57.9297H-18.002V-22.0703Z" fill="white"/>
</mask>
<g mask="url(#mask2_119_145)">
<mask id="mask3_119_145" style="mask-type:alpha" maskUnits="userSpaceOnUse" x="20" y="17" width="15" height="18">
<path d="M30.621 24.1509C31.26 23.4419 31.661 22.5129 31.661 21.4849C31.661 19.2789 29.867 17.4849 27.661 17.4849C25.455 17.4849 23.661 19.2789 23.661 21.4849C23.661 22.5129 24.061 23.4419 24.7 24.1509C22.318 25.2689 20.661 27.6839 20.661 30.4849V32.4849H22.661L27.911 33.9849C27.911 31.5689 29.259 34.5479 31.541 34.0859L33.291 29.8319C32.694 29.4859 25.662 22.2229 25.662 21.4829C25.662 20.3789 26.557 19.4839 27.661 19.4839C28.764 19.4839 29.659 20.3789 29.659 21.4829C29.659 22.2179 29.257 22.8539 28.666 23.2009V25.5869C30.943 26.0529 32.661 28.0719 32.661 30.4849V32.4849H34.661V30.4849C34.661 27.6839 33.003 25.2689 30.621 24.1509Z" fill="#F10000"/>
</mask>
<g mask="url(#mask3_119_145)">
<path d="M19.399 24.1509C20.038 23.4419 20.439 22.5129 20.439 21.4849C20.439 19.2789 18.645 17.4849 16.439 17.4849C14.233 17.4849 12.439 19.2789 12.439 21.4849C12.439 22.5129 12.839 23.4419 13.478 24.1509C11.096 25.2689 9.439 27.6839 9.439 30.4849V32.4849H11.439V30.4849C11.439 28.0689 13.162 26.0479 15.444 25.5859V23.2069C14.847 22.8609 14.44 22.2229 14.44 21.4829C14.44 20.3789 15.335 19.4839 16.439 19.4839C17.542 19.4839 18.437 20.3789 18.437 21.4829C18.437 22.2179 18.035 22.8539 17.444 23.2009V25.5869C19.721 26.0529 21.439 28.0719 21.439 30.4849V32.4849H23.439V30.4849C23.439 27.6839 21.781 25.2689 19.399 24.1509Z" fill="#222222"/>
</g>
<path d="M30.621 24.1509C31.26 23.4419 31.661 22.5129 31.661 21.4849C31.661 19.2789 29.867 17.4849 27.661 17.4849C25.455 17.4849 23.661 19.2789 23.661 21.4849C23.661 22.5129 24.061 23.4419 24.7 24.1509C22.318 25.2689 20.661 27.6839 20.661 30.4849V32.4849H22.661V30.4849C22.661 28.0689 24.384 26.0479 26.666 25.5859V23.2069C26.069 22.8609 25.662 22.2229 25.662 21.4829C25.662 20.3789 26.557 19.4839 27.661 19.4839C28.764 19.4839 29.659 20.3789 29.659 21.4829C29.659 22.2179 29.257 22.8539 28.666 23.2009V25.5869C30.943 26.0529 32.661 28.0719 32.661 30.4849V32.4849H34.661V30.4849C34.661 27.6839 33.003 25.2689 30.621 24.1509Z" fill="#222222"/>
<path d="M18.583 25.0957C19.222 24.3867 19.623 23.4577 19.623 22.4297C19.623 20.2237 17.829 18.4297 15.623 18.4297C13.417 18.4297 11.623 20.2237 11.623 22.4297C11.623 23.4577 12.023 24.3867 12.662 25.0957C10.28 26.2137 8.62299 28.6287 8.62299 31.4297V33.4297H10.623V31.4297C10.623 29.0137 12.346 26.9927 14.628 26.5307V24.1517C14.031 23.8057 13.624 23.1677 13.624 22.4277C13.624 21.3237 14.519 20.4287 15.623 20.4287C16.726 20.4287 17.621 21.3237 17.621 22.4277C17.621 23.1627 17.219 23.7987 16.628 24.1457V26.5317C18.905 26.9977 20.623 29.0167 20.623 31.4297V33.4297H22.623V31.4297C22.623 28.6287 20.965 26.2137 18.583 25.0957Z" fill="#222222"/>
</g>
</g>
</g>
</g>
<defs>
<clipPath id="clip0_119_145">
<rect width="35" height="35" fill="white"/>
</clipPath>
</defs>
</svg>
