<svg width="45" height="45" viewBox="0 0 45 45" fill="none" xmlns="http://www.w3.org/2000/svg">
<g clip-path="url(#clip0_118_15)">
<mask id="mask0_118_15" style="mask-type:luminance" maskUnits="userSpaceOnUse" x="0" y="0" width="45" height="45">
<path d="M45 0H0V45H45V0Z" fill="white"/>
</mask>
<g mask="url(#mask0_118_15)">
<path d="M28 8V11H29C31.689 11 33.882 13.122 33.995 15.783L34 16V19H33V30C33 30.513 32.614 30.936 32.117 30.993L32 31H28V37H26V35H21V37H19V31H13.465C13.774 31.534 13.963 32.147 13.995 32.8L14 33C14 35.209 12.209 37 10 37C7.791 37 6 35.209 6 33C6 32.271 6.195 31.588 6.535 31H4C3.487 31 3.064 30.614 3.007 30.117L3 30V19H2V16C2 13.311 4.122 11.118 6.783 11.005L7 11H26V8H28ZM10 31C8.895 31 8 31.895 8 33C8 34.105 8.895 35 10 35C11.105 35 12 34.105 12 33C12 31.895 11.105 31 10 31ZM26 31H21V33H26V31ZM19 19H4.999V29H19V19ZM25.999 27H20.999V29H25.999V27ZM30.999 19H28V29H30.999V19ZM25.999 19H20.999V25H25.999V19ZM29 13H7C5.402 13 4.096 14.249 4.005 15.824L4 16L3.999 17H31.999L32 16C32 14.461 30.842 13.193 29.35 13.02L29.176 13.005L29 13Z" fill="#222222"/>
</g>
</g>
<defs>
<clipPath id="clip0_118_15">
<rect width="45" height="45" fill="white"/>
</clipPath>
</defs>
</svg>
