<svg width="45" height="45" viewBox="0 0 45 45" fill="none" xmlns="http://www.w3.org/2000/svg">
<g clip-path="url(#clip0_122_4)">
<mask id="mask0_122_4" style="mask-type:luminance" maskUnits="userSpaceOnUse" x="0" y="0" width="45" height="45">
<path d="M45 0H0V45H45V0Z" fill="white"/>
</mask>
<g mask="url(#mask0_122_4)">
<path d="M15.4209 30.147C15.4209 29.0338 16.3238 28.1309 17.437 28.1309C18.5502 28.1309 19.4531 29.0338 19.4531 30.147C19.4531 31.2601 18.5502 32.1616 17.437 32.1616C16.3238 32.1616 15.4209 31.2601 15.4209 30.147ZM21.4677 30.147C21.4677 27.9206 19.6634 26.1162 17.437 26.1162C15.2106 26.1162 13.4062 27.9206 13.4062 30.147C13.4062 32.3733 15.2106 34.1777 17.437 34.1777C19.6634 34.1777 21.4677 32.3733 21.4677 30.147Z" fill="#222222"/>
<path d="M25.542 26.073C24.0502 23.1091 20.9812 21.0776 17.437 21.0776C13.8927 21.0776 10.8238 23.1105 9.33203 26.073L10.8574 27.5983C11.8795 24.9626 14.4395 23.0923 17.437 23.0923C20.4345 23.0923 22.9945 24.9626 24.0166 27.5983L25.542 26.073Z" fill="#222222"/>
<path d="M29.2236 22.391C26.7 18.5636 22.3636 16.0386 17.437 16.0386C12.5104 16.0386 8.17399 18.565 5.65039 22.391L7.11127 23.8505C9.2353 20.375 13.0656 18.0546 17.437 18.0546C21.8098 18.0546 25.6401 20.375 27.7641 23.8519L29.2236 22.391Z" fill="#222222"/>
<path d="M32.8407 18.7741C29.354 14.0592 23.7516 11 17.437 11C11.1224 11 5.51998 14.0592 2.0332 18.7741L3.47726 20.2153C6.58269 15.8579 11.6776 13.0161 17.437 13.0161C23.1964 13.0161 28.2927 15.8579 31.3981 20.2167L32.8407 18.7741Z" fill="#222222"/>
</g>
</g>
<defs>
<clipPath id="clip0_122_4">
<rect width="45" height="45" fill="white"/>
</clipPath>
</defs>
</svg>
