<svg width="45" height="45" viewBox="0 0 45 45" fill="none" xmlns="http://www.w3.org/2000/svg">
<g clip-path="url(#clip0_123_186)">
<mask id="mask0_123_186" style="mask-type:luminance" maskUnits="userSpaceOnUse" x="0" y="0" width="45" height="45">
<path d="M45 0H0V45H45V0Z" fill="white"/>
</mask>
<g mask="url(#mask0_123_186)">
<path d="M16.877 7.54785V11.5779L20.903 9.25285L21.903 10.9859L16.877 13.8869V20.8149L22.877 17.3509V11.5479H24.877V16.1959L28.368 14.1819L29.368 15.9139L25.877 17.9289L29.903 20.2529L28.903 21.9859L23.877 19.0829L17.877 22.5469L23.878 26.0119L28.903 23.1099L29.903 24.8419L25.877 27.1659L29.368 29.1819L28.368 30.9139L24.877 28.8989V33.5479H22.877V27.7439L16.877 24.2789V31.2079L21.903 34.1099L20.903 35.8419L16.877 33.5169V37.5479H14.877V33.5169L10.851 35.8419L9.85095 34.1099L14.877 31.2079V24.2789L8.87695 27.7429V33.5479H6.87695V28.8979L3.38695 30.9139L2.38695 29.1819L5.87595 27.1659L1.85095 24.8419L2.85095 23.1099L7.87595 26.0109L13.8759 22.5469L7.87695 19.0829L2.85095 21.9859L1.85095 20.2529L5.87695 17.9289L2.38695 15.9139L3.38695 14.1819L6.87695 16.1959V11.5479H8.87695V17.3509L14.877 20.8149V13.8869L9.85095 10.9859L10.851 9.25285L14.877 11.5779V7.54785H16.877Z" fill="#222222"/>
</g>
</g>
<defs>
<clipPath id="clip0_123_186">
<rect width="45" height="45" fill="white"/>
</clipPath>
</defs>
</svg>
