<svg width="45" height="45" viewBox="0 0 45 45" fill="none" xmlns="http://www.w3.org/2000/svg">
<g clip-path="url(#clip0_129_366)">
<mask id="mask0_129_366" style="mask-type:luminance" maskUnits="userSpaceOnUse" x="0" y="0" width="45" height="45">
<path d="M45 0H0V45H45V0Z" fill="white"/>
</mask>
<g mask="url(#mask0_129_366)">
<path d="M5 24.75H29V34.75H5V24.75Z" stroke="#222222" stroke-width="2" stroke-linejoin="round"/>
<path d="M2 24.75H32" stroke="#222222" stroke-width="2" stroke-linejoin="round"/>
<mask id="mask1_129_366" style="mask-type:alpha" maskUnits="userSpaceOnUse" x="2" y="3" width="31" height="22">
<path d="M28.931 24.7498H5.06897L2.01697 3.30078L32.001 3.42678L28.931 24.7498Z" fill="#222222"/>
</mask>
<g mask="url(#mask1_129_366)">
<path d="M17 25.4739C18.237 25.4739 19.25 24.4049 19.25 23.3099C19.25 22.1199 18.5 20.6779 17 18.9839C15.5 20.6779 14.75 22.1199 14.75 23.3099C14.75 24.4049 15.763 25.4739 17 25.4739Z" stroke="#222222" stroke-width="2"/>
</g>
<mask id="mask2_129_366" style="mask-type:alpha" maskUnits="userSpaceOnUse" x="2" y="3" width="31" height="22">
<path d="M28.931 24.7498H5.06897L2.01697 3.30078L32.001 3.42678L28.931 24.7498Z" fill="#222222"/>
</mask>
<g mask="url(#mask2_129_366)">
<path d="M17 9.55469C20.318 11.6577 23 16.3167 23 19.6967C23 23.7537 20.038 25.7827 17 25.7827C14.01 25.7827 11 24.2607 11 19.6967C11 18.0067 11.833 15.9787 13.5 13.6117L15 14.6257C15 14.6257 15.5 10.1247 17 9.55469Z" stroke="#222222" stroke-width="2" stroke-linecap="round"/>
</g>
</g>
</g>
<defs>
<clipPath id="clip0_129_366">
<rect width="45" height="45" fill="white"/>
</clipPath>
</defs>
</svg>
