<svg width="45" height="45" viewBox="0 0 45 45" fill="none" xmlns="http://www.w3.org/2000/svg">
<g clip-path="url(#clip0_123_134)">
<mask id="mask0_123_134" style="mask-type:luminance" maskUnits="userSpaceOnUse" x="0" y="0" width="45" height="45">
<path d="M45 0H0V45H45V0Z" fill="white"/>
</mask>
<g mask="url(#mask0_123_134)">
<path d="M25 29.6255H29V32.6255C29 33.1775 28.552 33.6255 28 33.6255H26C25.448 33.6255 25 33.1775 25 32.6255V29.6255Z" stroke="#222222" stroke-width="2"/>
<path d="M3 29.6255H7V32.6255C7 33.1775 6.552 33.6255 6 33.6255H4C3.448 33.6255 3 33.1775 3 32.6255V29.6255Z" stroke="#222222" stroke-width="2"/>
<path d="M7 19.6255H25C27.209 19.6255 29 21.4165 29 23.6255V28.6255C29 29.1775 28.552 29.6255 28 29.6255H4C3.448 29.6255 3 29.1775 3 28.6255V23.6255C3 21.4165 4.791 19.6255 7 19.6255Z" stroke="#222222" stroke-width="2"/>
<path d="M25 23.6255C25.552 23.6255 26 24.0735 26 24.6255C26 25.1775 25.552 25.6255 25 25.6255C24.448 25.6255 24 25.1775 24 24.6255C24 24.0735 24.448 23.6255 25 23.6255Z" fill="#222222"/>
<path d="M7 23.6255C7.552 23.6255 8 24.0735 8 24.6255C8 25.1775 7.552 25.6255 7 25.6255C6.448 25.6255 6 25.1775 6 24.6255C6 24.0735 6.448 23.6255 7 23.6255Z" fill="#222222"/>
<path d="M8.693 11.6255H23.307C23.724 11.6255 24.097 11.8845 24.243 12.2745L27 19.6255H5L7.757 12.2745C7.903 11.8845 8.276 11.6255 8.693 11.6255Z" stroke="#222222" stroke-width="2"/>
<path d="M2 16.6255H5V18.6255H2V16.6255Z" fill="#222222"/>
<path d="M27 16.6255H30V18.6255H27V16.6255Z" fill="#222222"/>
<path d="M10 24.6255H22" stroke="#222222" stroke-width="2"/>
</g>
</g>
<defs>
<clipPath id="clip0_123_134">
<rect width="45" height="45" fill="white"/>
</clipPath>
</defs>
</svg>
