<svg width="20" height="23" viewBox="0 0 20 23" fill="none" xmlns="http://www.w3.org/2000/svg">
<path d="M3.75 2.875C3.75 2.49375 3.8817 2.12812 4.11612 1.85853C4.35054 1.58895 4.66848 1.4375 5 1.4375H15C15.3315 1.4375 15.6495 1.58895 15.8839 1.85853C16.1183 2.12812 16.25 2.49375 16.25 2.875V21.5625H18.125C18.2908 21.5625 18.4497 21.6382 18.5669 21.773C18.6842 21.9078 18.75 22.0906 18.75 22.2812C18.75 22.4719 18.6842 22.6547 18.5669 22.7895C18.4497 22.9243 18.2908 23 18.125 23H1.875C1.70924 23 1.55027 22.9243 1.43306 22.7895C1.31585 22.6547 1.25 22.4719 1.25 22.2812C1.25 22.0906 1.31585 21.9078 1.43306 21.773C1.55027 21.6382 1.70924 21.5625 1.875 21.5625H3.75V2.875ZM5 21.5625H15V2.875H5V21.5625Z" fill="black"/>
<path d="M11.25 12.9375C11.25 12.9375 11.3817 13.6844 11.6161 13.954C11.6161 13.954 12.1685 14.375 12.5 14.375L13.3839 13.954C13.3839 13.954 13.75 13.3187 13.75 12.9375C13.75 12.5563 13.3839 11.921 13.3839 11.921L12.5 11.5C12.5 11.5 11.8505 11.6515 11.6161 11.921C11.6161 11.921 11.25 12.5563 11.25 12.9375Z" fill="black"/>
</svg>
