<svg width="17" height="20" viewBox="0 0 17 20" fill="none" xmlns="http://www.w3.org/2000/svg">
<g clip-path="url(#clip0_14_667)">
<path d="M11.6875 7.5C11.6875 8.49456 11.3517 9.44839 10.7539 10.1517C10.1561 10.8549 9.34538 11.25 8.5 11.25C7.65462 11.25 6.84387 10.8549 6.2461 10.1517C5.64833 9.44839 5.3125 8.49456 5.3125 7.5C5.3125 6.50544 5.64833 5.55161 6.2461 4.84835C6.84387 4.14509 7.65462 3.75 8.5 3.75C9.34538 3.75 10.1561 4.14509 10.7539 4.84835C11.3517 5.55161 11.6875 6.50544 11.6875 7.5Z" fill="black"/>
<path d="M2.125 0C1.56141 0 1.02091 0.263392 0.622398 0.732233C0.223883 1.20107 0 1.83696 0 2.5L0 17.5C0 18.163 0.223883 18.7989 0.622398 19.2678C1.02091 19.7366 1.56141 20 2.125 20H14.875C15.4386 20 15.9791 19.7366 16.3776 19.2678C16.7761 18.7989 17 18.163 17 17.5V2.5C17 1.83696 16.7761 1.20107 16.3776 0.732233C15.9791 0.263392 15.4386 0 14.875 0L2.125 0ZM14.875 1.25C15.1568 1.25 15.427 1.3817 15.6263 1.61612C15.8256 1.85054 15.9375 2.16848 15.9375 2.5V17.5C15.9375 17.8315 15.8256 18.1495 15.6263 18.3839C15.427 18.6183 15.1568 18.75 14.875 18.75V17.5C14.875 16.25 13.8125 12.5 8.5 12.5C3.1875 12.5 2.125 16.25 2.125 17.5V18.75C1.84321 18.75 1.57296 18.6183 1.3737 18.3839C1.17444 18.1495 1.0625 17.8315 1.0625 17.5V2.5C1.0625 2.16848 1.17444 1.85054 1.3737 1.61612C1.57296 1.3817 1.84321 1.25 2.125 1.25H14.875Z" fill="black"/>
</g>
<defs>
<clipPath id="clip0_14_667">
<rect width="17" height="20" fill="white"/>
</clipPath>
</defs>
</svg>
