<svg width="32" height="32" viewBox="0 0 32 32" fill="none" xmlns="http://www.w3.org/2000/svg">
<path d="M2.5 8H12V7H10V4.5C10 4.10218 10.158 3.72064 10.4393 3.43934C10.7206 3.15804 11.1022 3 11.5 3C11.8978 3 12.2794 3.15804 12.5607 3.43934C12.842 3.72064 13 4.10218 13 4.5V19.5C13 19.6326 13.0527 19.7598 13.1464 19.8536C13.2402 19.9473 13.3674 20 13.5 20C13.6326 20 13.7598 19.9473 13.8536 19.8536C13.9473 19.7598 14 19.6326 14 19.5V17H22V19.5C22 19.6326 22.0527 19.7598 22.1464 19.8536C22.2402 19.9473 22.3674 20 22.5 20C22.6326 20 22.7598 19.9473 22.8536 19.8536C22.9473 19.7598 23 19.6326 23 19.5V8H29.5C29.6326 8 29.7598 7.94732 29.8536 7.85355C29.9473 7.75979 30 7.63261 30 7.5C30 7.36739 29.9473 7.24021 29.8536 7.14645C29.7598 7.05268 29.6326 7 29.5 7H23V4.5C23 3.83696 22.7366 3.20107 22.2678 2.73223C21.7989 2.26339 21.163 2 20.5 2C19.837 2 19.2011 2.26339 18.7322 2.73223C18.2634 3.20107 18 3.83696 18 4.5V7H14V4.5C14 3.83696 13.7366 3.20107 13.2678 2.73223C12.7989 2.26339 12.163 2 11.5 2C10.837 2 10.2011 2.26339 9.73223 2.73223C9.26339 3.20107 9 3.83696 9 4.5V7H2.5C2.36739 7 2.24021 7.05268 2.14645 7.14645C2.05268 7.24021 2 7.36739 2 7.5C2 7.63261 2.05268 7.75979 2.14645 7.85355C2.24021 7.94732 2.36739 8 2.5 8ZM22 16H14V14H22V16ZM22 13H14V11H22V13ZM21 8V7H19V4.5C19 4.10218 19.158 3.72064 19.4393 3.43934C19.7206 3.15804 20.1022 3 20.5 3C20.8978 3 21.2794 3.15804 21.5607 3.43934C21.842 3.72064 22 4.10218 22 4.5V10H14V8H21ZM29.5 22.81C29.1985 22.811 28.9 22.75 28.623 22.6308C28.346 22.5116 28.0965 22.3367 27.89 22.117C27.2909 21.5246 26.4825 21.1924 25.64 21.1924C24.7975 21.1924 23.989 21.5246 23.39 22.117C23.1832 22.3359 22.934 22.5102 22.6575 22.6294C22.381 22.7486 22.0831 22.81 21.782 22.81C21.4809 22.81 21.183 22.7486 20.9065 22.6294C20.63 22.5102 20.3808 22.3359 20.174 22.117C19.5758 21.5229 18.767 21.1896 17.924 21.1896C17.081 21.1896 16.2722 21.5229 15.674 22.117C15.4678 22.3359 15.219 22.5102 14.9429 22.6294C14.6668 22.7486 14.3692 22.8101 14.0685 22.8101C13.7678 22.8101 13.4702 22.7486 13.1941 22.6294C12.918 22.5102 12.6692 22.3359 12.463 22.117C11.8648 21.5229 11.056 21.1896 10.213 21.1896C9.36998 21.1896 8.56116 21.5229 7.963 22.117C7.75676 22.3359 7.50796 22.5102 7.23186 22.6294C6.95577 22.7486 6.65822 22.8101 6.3575 22.8101C6.05678 22.8101 5.75923 22.7486 5.48314 22.6294C5.20704 22.5102 4.95824 22.3359 4.752 22.117C4.45677 21.821 4.10565 21.5866 3.71905 21.4275C3.33245 21.2683 2.91807 21.1876 2.5 21.19C2.36739 21.19 2.24021 21.2427 2.14645 21.3364C2.05268 21.4302 2 21.5574 2 21.69C2 21.8226 2.05268 21.9498 2.14645 22.0436C2.24021 22.1373 2.36739 22.19 2.5 22.19C2.80085 22.1896 3.0986 22.2508 3.37483 22.37C3.65107 22.4892 3.89992 22.6638 4.106 22.883C4.70416 23.4771 5.51297 23.8104 6.356 23.8104C7.19903 23.8104 8.00784 23.4771 8.606 22.883C8.81224 22.6641 9.06104 22.4898 9.33714 22.3706C9.61323 22.2514 9.91078 22.1899 10.2115 22.1899C10.5122 22.1899 10.8098 22.2514 11.0859 22.3706C11.362 22.4898 11.6108 22.6641 11.817 22.883C12.415 23.4773 13.2239 23.8109 14.067 23.8109C14.9101 23.8109 15.719 23.4773 16.317 22.883C16.5235 22.6642 16.7725 22.4899 17.0487 22.3708C17.325 22.2516 17.6227 22.1902 17.9235 22.1902C18.2243 22.1902 18.522 22.2516 18.7983 22.3708C19.0745 22.4899 19.3235 22.6642 19.53 22.883C20.1291 23.4754 20.9375 23.8076 21.78 23.8076C22.6225 23.8076 23.431 23.4754 24.03 22.883C24.2372 22.6641 24.4868 22.4898 24.7636 22.3707C25.0404 22.2516 25.3386 22.1901 25.64 22.1901C25.9414 22.1901 26.2396 22.2516 26.5164 22.3707C26.7932 22.4898 27.0428 22.6641 27.25 22.883C27.5454 23.1788 27.8965 23.4131 28.2831 23.5722C28.6697 23.7314 29.084 23.8122 29.502 23.81C29.6346 23.81 29.7618 23.7573 29.8556 23.6636C29.9493 23.5698 30.002 23.4426 30.002 23.31C30.002 23.1774 29.9493 23.0502 29.8556 22.9564C29.7618 22.8627 29.6346 22.81 29.502 22.81H29.5Z" fill="black"/>
<path d="M29.5 25.8099C29.1985 25.8109 28.9 25.7499 28.623 25.6307C28.346 25.5114 28.0965 25.3366 27.89 25.1169C27.2909 24.5245 26.4825 24.1923 25.64 24.1923C24.7975 24.1923 23.989 24.5245 23.39 25.1169C23.1832 25.3358 22.934 25.5101 22.6575 25.6293C22.381 25.7485 22.0831 25.8099 21.782 25.8099C21.4809 25.8099 21.183 25.7485 20.9065 25.6293C20.63 25.5101 20.3808 25.3358 20.174 25.1169C19.5758 24.5228 18.767 24.1895 17.924 24.1895C17.081 24.1895 16.2722 24.5228 15.674 25.1169C15.4678 25.3358 15.219 25.5101 14.9429 25.6293C14.6668 25.7485 14.3692 25.81 14.0685 25.81C13.7678 25.81 13.4702 25.7485 13.1941 25.6293C12.918 25.5101 12.6692 25.3358 12.463 25.1169C11.8648 24.5228 11.056 24.1895 10.213 24.1895C9.36998 24.1895 8.56116 24.5228 7.963 25.1169C7.75676 25.3358 7.50796 25.5101 7.23186 25.6293C6.95577 25.7485 6.65822 25.81 6.3575 25.81C6.05678 25.81 5.75923 25.7485 5.48314 25.6293C5.20704 25.5101 4.95824 25.3358 4.752 25.1169C4.45677 24.8209 4.10565 24.5865 3.71905 24.4273C3.33245 24.2682 2.91807 24.1875 2.5 24.1899C2.36739 24.1899 2.24021 24.2426 2.14645 24.3363C2.05268 24.4301 2 24.5573 2 24.6899C2 24.8225 2.05268 24.9497 2.14645 25.0434C2.24021 25.1372 2.36739 25.1899 2.5 25.1899C2.80085 25.1895 3.0986 25.2507 3.37483 25.3699C3.65107 25.4891 3.89992 25.6637 4.106 25.8829C4.70416 26.4769 5.51297 26.8103 6.356 26.8103C7.19903 26.8103 8.00784 26.4769 8.606 25.8829C8.81224 25.664 9.06104 25.4896 9.33714 25.3705C9.61323 25.2513 9.91078 25.1898 10.2115 25.1898C10.5122 25.1898 10.8098 25.2513 11.0859 25.3705C11.362 25.4896 11.6108 25.664 11.817 25.8829C12.415 26.4772 13.2239 26.8107 14.067 26.8107C14.9101 26.8107 15.719 26.4772 16.317 25.8829C16.5235 25.6641 16.7725 25.4898 17.0487 25.3707C17.325 25.2515 17.6227 25.1901 17.9235 25.1901C18.2243 25.1901 18.522 25.2515 18.7983 25.3707C19.0745 25.4898 19.3235 25.6641 19.53 25.8829C20.1291 26.4753 20.9375 26.8075 21.78 26.8075C22.6225 26.8075 23.431 26.4753 24.03 25.8829C24.2372 25.664 24.4868 25.4897 24.7636 25.3706C25.0404 25.2515 25.3386 25.19 25.64 25.19C25.9414 25.19 26.2396 25.2515 26.5164 25.3706C26.7932 25.4897 27.0428 25.664 27.25 25.8829C27.5454 26.1787 27.8965 26.413 28.2831 26.5721C28.6697 26.7313 29.084 26.8121 29.502 26.8099C29.6346 26.8099 29.7618 26.7572 29.8556 26.6634C29.9493 26.5697 30.002 26.4425 30.002 26.3099C30.002 26.1773 29.9493 26.0501 29.8556 25.9563C29.7618 25.8626 29.6346 25.8099 29.502 25.8099H29.5Z" fill="black"/>
<path d="M29.5 28.8099C29.1985 28.8109 28.9 28.7499 28.623 28.6307C28.346 28.5114 28.0965 28.3366 27.89 28.1169C27.2909 27.5245 26.4825 27.1923 25.64 27.1923C24.7975 27.1923 23.989 27.5245 23.39 28.1169C23.1832 28.3358 22.934 28.5101 22.6575 28.6293C22.381 28.7485 22.0831 28.8099 21.782 28.8099C21.4809 28.8099 21.183 28.7485 20.9065 28.6293C20.63 28.5101 20.3808 28.3358 20.174 28.1169C19.5758 27.5228 18.767 27.1895 17.924 27.1895C17.081 27.1895 16.2722 27.5228 15.674 28.1169C15.4678 28.3358 15.219 28.5101 14.9429 28.6293C14.6668 28.7485 14.3692 28.81 14.0685 28.81C13.7678 28.81 13.4702 28.7485 13.1941 28.6293C12.918 28.5101 12.6692 28.3358 12.463 28.1169C11.8648 27.5228 11.056 27.1895 10.213 27.1895C9.36998 27.1895 8.56116 27.5228 7.963 28.1169C7.75676 28.3358 7.50796 28.5101 7.23186 28.6293C6.95577 28.7485 6.65822 28.81 6.3575 28.81C6.05678 28.81 5.75923 28.7485 5.48314 28.6293C5.20704 28.5101 4.95824 28.3358 4.752 28.1169C4.45677 27.8209 4.10565 27.5865 3.71905 27.4273C3.33245 27.2682 2.91807 27.1875 2.5 27.1899C2.36739 27.1899 2.24021 27.2426 2.14645 27.3363C2.05268 27.4301 2 27.5573 2 27.6899C2 27.8225 2.05268 27.9497 2.14645 28.0434C2.24021 28.1372 2.36739 28.1899 2.5 28.1899C2.80085 28.1895 3.0986 28.2507 3.37483 28.3699C3.65107 28.4891 3.89992 28.6637 4.106 28.8829C4.70416 29.4769 5.51297 29.8103 6.356 29.8103C7.19903 29.8103 8.00784 29.4769 8.606 28.8829C8.81224 28.664 9.06104 28.4896 9.33714 28.3705C9.61323 28.2513 9.91078 28.1898 10.2115 28.1898C10.5122 28.1898 10.8098 28.2513 11.0859 28.3705C11.362 28.4896 11.6108 28.664 11.817 28.8829C12.415 29.4772 13.2239 29.8107 14.067 29.8107C14.9101 29.8107 15.719 29.4772 16.317 28.8829C16.5235 28.6641 16.7725 28.4898 17.0487 28.3707C17.325 28.2515 17.6227 28.1901 17.9235 28.1901C18.2243 28.1901 18.522 28.2515 18.7983 28.3707C19.0745 28.4898 19.3235 28.6641 19.53 28.8829C20.1291 29.4753 20.9375 29.8075 21.78 29.8075C22.6225 29.8075 23.431 29.4753 24.03 28.8829C24.2372 28.664 24.4868 28.4897 24.7636 28.3706C25.0404 28.2515 25.3386 28.19 25.64 28.19C25.9414 28.19 26.2396 28.2515 26.5164 28.3706C26.7932 28.4897 27.0428 28.664 27.25 28.8829C27.5454 29.1787 27.8965 29.413 28.2831 29.5721C28.6697 29.7313 29.084 29.8121 29.502 29.8099C29.6346 29.8099 29.7618 29.7572 29.8556 29.6634C29.9493 29.5697 30.002 29.4425 30.002 29.3099C30.002 29.1773 29.9493 29.0501 29.8556 28.9563C29.7618 28.8626 29.6346 28.8099 29.502 28.8099H29.5Z" fill="black"/>
</svg>
