<svg width="32" height="32" viewBox="0 0 32 32" fill="none" xmlns="http://www.w3.org/2000/svg">
<path d="M16 28C23 23.27 30 18 30 11C30.0026 10.08 29.8234 9.16861 29.4725 8.31814C29.1217 7.46767 28.6062 6.69494 27.9556 6.04441C27.3051 5.39387 26.5324 4.87836 25.6819 4.52751C24.8314 4.17666 23.92 3.9974 23 4.00004C21.2 4.00004 19.42 4.68004 18.05 6.05004L16 8.10004L13.95 6.05004C13.3013 5.39757 12.5301 4.87977 11.6806 4.52644C10.831 4.17311 9.92006 3.99121 9.00001 3.99121C8.07995 3.99121 7.16897 4.17311 6.31946 4.52644C5.46995 4.87977 4.69868 5.39757 4.05001 6.05004C3.39912 6.69945 2.88296 7.47105 2.53116 8.32052C2.17935 9.16999 1.99885 10.0806 2.00001 11C2.00001 18 9.00001 23.27 16 28Z" fill="black" fill-opacity="0.5" stroke="black" stroke-width="2"/>
</svg>
