<svg width="64" height="64" viewBox="0 0 64 64" fill="none" xmlns="http://www.w3.org/2000/svg">
<g clip-path="url(#clip0_132_469)">
<path d="M41.636 8.40421L42.653 15.6412L60.232 20.3512C61.4768 20.6847 62.5448 21.486 63.2131 22.5879C63.8814 23.6898 64.0985 25.0072 63.819 26.2652L63.768 26.4752L57.038 51.5892C56.7882 52.5214 56.274 53.3615 55.5576 54.008C54.8411 54.6546 53.9528 55.0801 53 55.2332V56.0002C52.9999 57.2887 52.5024 58.5274 51.6113 59.458C50.7202 60.3886 49.5042 60.9393 48.217 60.9952L48 61.0002H16C14.7115 61.0001 13.4728 60.5027 12.5422 59.6115C11.6116 58.7204 11.0609 57.5045 11.005 56.2172L11 56.0002V44.0132L9.30997 44.2522C8.03394 44.4314 6.73799 44.1111 5.69241 43.358C4.64682 42.6049 3.93234 41.4773 3.69797 40.2102L3.66397 39.9962L0.0449745 14.2502C-0.134264 12.9743 0.185937 11.6785 0.938807 10.6329C1.69168 9.58737 2.8191 8.8728 4.08597 8.63821L4.30097 8.60321L35.989 4.14921C36.6392 4.05786 37.3011 4.09548 37.9368 4.25993C38.5725 4.42438 39.1696 4.71243 39.6939 5.10764C40.2183 5.50285 40.6597 5.99747 40.9929 6.56327C41.3261 7.12907 41.5447 7.75396 41.636 8.40421ZM21.146 47.7772L21.006 47.9082L13 55.9142V56.0002C12.9999 56.7654 13.2923 57.5017 13.8173 58.0585C14.3422 58.6152 15.0601 58.9503 15.824 58.9952L16 59.0002H37.42L25.149 47.8122C24.603 47.3143 23.8925 47.0354 23.1537 47.0289C22.4148 47.0225 21.7005 47.2889 21.146 47.7772ZM37.647 37.8742L37.508 38.0102L28.091 47.7882L40.387 59.0002H48C48.7652 59.0002 49.5015 58.7079 50.0582 58.1829C50.615 57.658 50.9501 56.9401 50.995 56.1762L51 56.0002V46.4392L41.7 37.8832C41.1479 37.3752 40.4255 37.0924 39.6752 37.0908C38.925 37.0891 38.2013 37.3686 37.647 37.8742ZM53 34.6142V53.1902C53.4757 53.0598 53.9119 52.8142 54.2701 52.4751C54.6284 52.1361 54.8976 51.714 55.054 51.2462L55.106 51.0722L57.581 41.8372L53 34.6142ZM48 27.0002H31.991C31.708 27.0312 31.42 27.0322 31.129 27.0002H16C15.2348 27.0002 14.4985 27.2925 13.9417 27.8175C13.385 28.3425 13.0499 29.0603 13.005 29.8242L13 30.0002V53.0842L19.592 46.4942C20.4719 45.6142 21.6484 45.0939 22.8915 45.0351C24.1346 44.9763 25.3549 45.3832 26.314 46.1762L26.496 46.3352L26.613 46.4402L36.068 36.6232C36.9446 35.7127 38.1334 35.168 39.3954 35.0986C40.6574 35.0292 41.8988 35.4403 42.87 36.2492L43.054 36.4112L51 43.7212V30.0002C51 29.235 50.7076 28.4987 50.1827 27.9419C49.6577 27.3852 48.9399 27.0501 48.176 27.0052L48 27.0002ZM11 32.5482L5.63697 39.6662L5.64397 39.7182C5.75478 40.506 6.17395 41.2175 6.80931 41.6963C7.44466 42.175 8.24416 42.3819 9.03197 42.2712L11 41.9942V32.5482ZM25.18 15.9542L25.13 16.1232L22.75 24.9992H28.086C27.7401 24.3908 27.56 23.7022 27.5635 23.0024C27.5671 22.3025 27.7542 21.6159 28.1061 21.0109C28.4581 20.406 28.9626 19.904 29.5693 19.5551C30.176 19.2062 30.8636 19.0226 31.5635 19.0226C32.2633 19.0226 32.9509 19.2062 33.5576 19.5551C34.1643 19.904 34.6688 20.406 35.0208 21.0109C35.3728 21.6159 35.5599 22.3025 35.5634 23.0024C35.567 23.7022 35.3868 24.3908 35.041 24.9992L48 25.0012C49.2884 25.0013 50.5271 25.4987 51.4578 26.3899C52.3884 27.281 52.9391 28.497 52.995 29.7842L53 30.0002V30.8802L58.284 39.2112L61.836 25.9582C62.0341 25.219 61.9422 24.432 61.5792 23.7584C61.2161 23.0847 60.6093 22.5752 59.883 22.3342L59.714 22.2842L28.804 14.0002C28.0649 13.8024 27.2782 13.8944 26.6047 14.2574C25.9313 14.6205 25.422 15.2271 25.181 15.9532L25.18 15.9542ZM21 31.0002C22.0608 31.0002 23.0783 31.4216 23.8284 32.1718C24.5785 32.9219 25 33.9393 25 35.0002C25 36.0611 24.5785 37.0785 23.8284 37.8286C23.0783 38.5788 22.0608 39.0002 21 39.0002C19.9391 39.0002 18.9217 38.5788 18.1715 37.8286C17.4214 37.0785 17 36.0611 17 35.0002C17 33.9393 17.4214 32.9219 18.1715 32.1718C18.9217 31.4216 19.9391 31.0002 21 31.0002ZM21 33.0002C20.4695 33.0002 19.9608 33.2109 19.5858 33.586C19.2107 33.9611 19 34.4698 19 35.0002C19 35.5306 19.2107 36.0393 19.5858 36.4144C19.9608 36.7895 20.4695 37.0002 21 37.0002C21.5304 37.0002 22.0391 36.7895 22.4142 36.4144C22.7893 36.0393 23 35.5306 23 35.0002C23 34.4698 22.7893 33.9611 22.4142 33.586C22.0391 33.2109 21.5304 33.0002 21 33.0002ZM36.443 6.11021L36.268 6.12921L4.57797 10.5822C3.82023 10.6889 3.13189 11.081 2.65377 11.6785C2.17566 12.2759 1.94392 13.0335 2.00597 13.7962L2.02597 13.9712L5.24297 36.8652L11.076 29.1252C11.2754 28.0057 11.8503 26.9876 12.706 26.2386C13.5616 25.4897 14.6469 25.0546 15.783 25.0052L16 25.0002H20.68L23.199 15.6052C23.5325 14.3606 24.3336 13.2928 25.4353 12.6245C26.5369 11.9562 27.8541 11.739 29.112 12.0182L29.322 12.0692L40.554 15.0792L39.656 8.68221C39.5496 7.92447 39.1576 7.23603 38.5604 6.75774C37.9631 6.27944 37.2057 6.04844 36.443 6.11021ZM29.632 22.5052C29.559 22.7777 29.5445 23.0624 29.5894 23.3409C29.6343 23.6193 29.7375 23.8852 29.8924 24.1209C30.0473 24.3566 30.2503 24.5569 30.488 24.7086C30.7258 24.8603 30.9929 24.96 31.272 25.0012H31.865C32.2212 24.9469 32.5562 24.7973 32.8345 24.5683C33.1127 24.3393 33.3239 24.0393 33.4458 23.7001C33.5676 23.3609 33.5955 22.9951 33.5266 22.6414C33.4576 22.2877 33.2943 21.9591 33.0541 21.6906C32.8138 21.422 32.5054 21.2233 32.1615 21.1155C31.8176 21.0078 31.4509 20.995 31.1003 21.0784C30.7497 21.1619 30.4282 21.3385 30.1697 21.5897C29.9113 21.8408 29.7255 22.1572 29.632 22.5052ZM9.99997 13.0002C11.0608 13.0002 12.0783 13.4216 12.8284 14.1718C13.5785 14.9219 14 15.9393 14 17.0002C14 18.0611 13.5785 19.0785 12.8284 19.8286C12.0783 20.5788 11.0608 21.0002 9.99997 21.0002C8.93911 21.0002 7.92169 20.5788 7.17155 19.8286C6.4214 19.0785 5.99997 18.0611 5.99997 17.0002C5.99997 15.9393 6.4214 14.9219 7.17155 14.1718C7.92169 13.4216 8.93911 13.0002 9.99997 13.0002ZM9.99997 15.0002C9.46954 15.0002 8.96083 15.2109 8.58576 15.586C8.21069 15.9611 7.99997 16.4698 7.99997 17.0002C7.99997 17.5306 8.21069 18.0393 8.58576 18.4144C8.96083 18.7895 9.46954 19.0002 9.99997 19.0002C10.5304 19.0002 11.0391 18.7895 11.4142 18.4144C11.7893 18.0393 12 17.5306 12 17.0002C12 16.4698 11.7893 15.9611 11.4142 15.586C11.0391 15.2109 10.5304 15.0002 9.99997 15.0002Z" fill="black"/>
</g>
<defs>
<clipPath id="clip0_132_469">
<rect width="64" height="64" fill="white"/>
</clipPath>
</defs>
</svg>
