<svg width="45" height="45" viewBox="0 0 45 45" fill="none" xmlns="http://www.w3.org/2000/svg">
<g clip-path="url(#clip0_123_47)">
<mask id="mask0_123_47" style="mask-type:luminance" maskUnits="userSpaceOnUse" x="0" y="0" width="45" height="45">
<path d="M45 0H0V45H45V0Z" fill="white"/>
</mask>
<g mask="url(#mask0_123_47)">
<path d="M4.5 9.5H28.5C29.052 9.5 29.5 9.948 29.5 10.5V34.5C29.5 35.052 29.052 35.5 28.5 35.5H4.5C3.948 35.5 3.5 35.052 3.5 34.5V10.5C3.5 9.948 3.948 9.5 4.5 9.5Z" stroke="#222222" stroke-width="2"/>
<path d="M29.5 17.5H3.5" stroke="#222222" stroke-width="2"/>
<path d="M25.5 12.5C26.052 12.5 26.5 12.948 26.5 13.5C26.5 14.052 26.052 14.5 25.5 14.5C24.948 14.5 24.5 14.052 24.5 13.5C24.5 12.948 24.948 12.5 25.5 12.5Z" fill="black"/>
<path d="M19.5 12.5C20.052 12.5 20.5 12.948 20.5 13.5C20.5 14.052 20.052 14.5 19.5 14.5C18.948 14.5 18.5 14.052 18.5 13.5C18.5 12.948 18.948 12.5 19.5 12.5Z" fill="black"/>
<path d="M13.5 12.5C14.052 12.5 14.5 12.948 14.5 13.5C14.5 14.052 14.052 14.5 13.5 14.5C12.948 14.5 12.5 14.052 12.5 13.5C12.5 12.948 12.948 12.5 13.5 12.5Z" fill="black"/>
<path d="M7.5 12.5C8.052 12.5 8.5 12.948 8.5 13.5C8.5 14.052 8.052 14.5 7.5 14.5C6.948 14.5 6.5 14.052 6.5 13.5C6.5 12.948 6.948 12.5 7.5 12.5Z" fill="black"/>
<path d="M7.5 21.4999H25.5V31.4999H7.5V21.4999ZM4.5 17.5029H28.5C29.052 17.5029 29.5 17.9509 29.5 18.5029V34.4999C29.5 35.0519 29.052 35.4999 28.5 35.4999H4.5C3.948 35.4999 3.5 35.0519 3.5 34.4999V18.5029C3.5 17.9509 3.948 17.5029 4.5 17.5029Z" stroke="#222222" stroke-width="2"/>
</g>
</g>
<defs>
<clipPath id="clip0_123_47">
<rect width="45" height="45" fill="white"/>
</clipPath>
</defs>
</svg>
