<svg width="45" height="45" viewBox="0 0 45 45" fill="none" xmlns="http://www.w3.org/2000/svg">
<g clip-path="url(#clip0_129_442)">
<mask id="mask0_129_442" style="mask-type:luminance" maskUnits="userSpaceOnUse" x="0" y="0" width="45" height="45">
<path d="M45 0H0V45H45V0Z" fill="white"/>
</mask>
<g mask="url(#mask0_129_442)">
<path d="M28.875 12.5C30.049 12.5 31 13.451 31 14.625C31 15.799 30.049 16.75 28.875 16.75C27.701 16.75 26.75 15.799 26.75 14.625C26.75 13.451 27.701 12.5 28.875 12.5Z" stroke="#222222" stroke-width="2" stroke-linejoin="round"/>
<path d="M28.875 28.25C30.049 28.25 31 29.201 31 30.375C31 31.549 30.049 32.5 28.875 32.5C27.701 32.5 26.75 31.549 26.75 30.375C26.75 29.201 27.701 28.25 28.875 28.25Z" stroke="#222222" stroke-width="2" stroke-linejoin="round"/>
<path d="M5.312 27.875C6.589 27.875 7.625 28.911 7.625 30.188C7.625 31.465 6.589 32.5 5.312 32.5C4.035 32.5 3 31.465 3 30.188C3 28.911 4.035 27.875 5.312 27.875Z" stroke="#222222" stroke-width="2" stroke-linejoin="round"/>
<path d="M5.312 12.5C6.589 12.5 7.625 13.535 7.625 14.812C7.625 16.089 6.589 17.125 5.312 17.125C4.035 17.125 3 16.089 3 14.812C3 13.535 4.035 12.5 5.312 12.5Z" stroke="#222222" stroke-width="2" stroke-linejoin="round"/>
<path d="M19 32.5V30.5C19 29.395 18.105 28.5 17 28.5C15.895 28.5 15 29.395 15 30.5V32.5" stroke="#222222" stroke-width="2" stroke-linejoin="round"/>
<path d="M19 12.5V14.5C19 15.605 18.105 16.5 17 16.5C15.895 16.5 15 15.605 15 14.5V12.5" stroke="#222222" stroke-width="2" stroke-linejoin="round"/>
<path d="M3 12.5H31V32.5H3V12.5Z" stroke="#222222" stroke-width="2" stroke-linejoin="round"/>
<path d="M19.682 21.5479L25 37.4999" stroke="#222222" stroke-width="2" stroke-linejoin="round"/>
<path d="M19 18.5C19.552 18.5 20 18.948 20 19.5C20 20.052 19.552 20.5 19 20.5C18.448 20.5 18 20.052 18 19.5C18 18.948 18.448 18.5 19 18.5Z" fill="#222222"/>
</g>
</g>
<defs>
<clipPath id="clip0_129_442">
<rect width="45" height="45" fill="white"/>
</clipPath>
</defs>
</svg>
