<svg width="45" height="45" viewBox="0 0 45 45" fill="none" xmlns="http://www.w3.org/2000/svg">
<g clip-path="url(#clip0_126_2)">
<mask id="mask0_126_2" style="mask-type:luminance" maskUnits="userSpaceOnUse" x="0" y="0" width="45" height="45">
<path d="M45 0H0V45H45V0Z" fill="white"/>
</mask>
<g mask="url(#mask0_126_2)">
<path d="M23.125 20.375H29.125" stroke="#222222" stroke-width="2"/>
<path d="M10.125 16.375H34.125" stroke="#222222" stroke-width="2"/>
<path d="M29.125 23.375V13.375C29.125 11.718 27.782 10.375 26.125 10.375C24.468 10.375 23.125 11.718 23.125 13.375M23.125 13.375V23.375M23.125 13.375C23.125 11.718 21.782 10.375 20.125 10.375C18.468 10.375 17.125 11.718 17.125 13.375" stroke="#222222" stroke-width="2"/>
<mask id="mask1_126_2" style="mask-type:alpha" maskUnits="userSpaceOnUse" x="2" y="18" width="41" height="21">
<path d="M42.018 18.2505V38.3975H2V18.2505H42.018Z" fill="black"/>
</mask>
<g mask="url(#mask1_126_2)">
<path d="M10.136 34.8521C9.41198 34.8521 8.68798 34.6021 8.13598 34.1021C7.58398 33.6021 6.85998 33.3521 6.13598 33.3521C5.41199 33.3521 4.68798 33.6021 4.13598 34.1021C3.58398 34.6021 2.85999 34.8521 2.13598 34.8521C1.41199 34.8521 0.687984 34.6021 0.135984 34.1021C-0.416016 33.6021 -1.14001 33.3521 -1.86402 33.3521C-2.58801 33.3521 -3.31202 33.6021 -3.86402 34.1021C-4.41602 34.6021 -5.14001 34.8521 -5.86402 34.8521C-6.58801 34.8521 -7.31202 34.6021 -7.86402 34.1021C-8.41602 33.6021 -9.14001 33.3521 -9.86402 33.3521C-10.588 33.3521 -11.312 33.6021 -11.864 34.1021C-12.416 34.6021 -13.14 34.8521 -13.864 34.8521M58.124 34.8661C57.4 34.8661 56.676 34.6161 56.124 34.1161C55.572 33.6161 54.848 33.3661 54.124 33.3661C53.4 33.3661 52.676 33.6161 52.124 34.1161C51.572 34.6161 50.848 34.8661 50.124 34.8661C49.4 34.8661 48.676 34.6161 48.124 34.1161C47.572 33.6161 46.848 33.3661 46.124 33.3661C45.4 33.3661 44.676 33.6161 44.124 34.1161C43.572 34.6161 42.848 34.8661 42.124 34.8661C41.4 34.8661 40.676 34.6161 40.124 34.1161C39.572 33.6161 38.848 33.3661 38.124 33.3661C37.4 33.3661 36.676 33.6161 36.124 34.1161C35.572 34.6161 34.848 34.8661 34.124 34.8661M34.125 34.8751C33.401 34.8751 32.677 34.6251 32.125 34.1251C31.573 33.6251 30.849 33.3751 30.125 33.3751C29.401 33.3751 28.677 33.6251 28.125 34.1251C27.573 34.6251 26.849 34.8751 26.125 34.8751C25.401 34.8751 24.677 34.6251 24.125 34.1251C23.573 33.6251 22.849 33.3751 22.125 33.3751C21.401 33.3751 20.677 33.6251 20.125 34.1251C19.573 34.6251 18.849 34.8751 18.125 34.8751C17.401 34.8751 16.677 34.6251 16.125 34.1251C15.573 33.6251 14.849 33.3751 14.125 33.3751C13.401 33.3751 12.677 33.6251 12.125 34.1251C11.573 34.6251 10.849 34.8751 10.125 34.8751" stroke="#222222" stroke-width="2"/>
<path d="M10.136 29.8521C9.41198 29.8521 8.68798 29.6021 8.13598 29.1021C7.58398 28.6021 6.85998 28.3521 6.13598 28.3521C5.41199 28.3521 4.68798 28.6021 4.13598 29.1021C3.58398 29.6021 2.85999 29.8521 2.13598 29.8521C1.41199 29.8521 0.687984 29.6021 0.135984 29.1021C-0.416016 28.6021 -1.14001 28.3521 -1.86402 28.3521C-2.58801 28.3521 -3.31202 28.6021 -3.86402 29.1021C-4.41602 29.6021 -5.14001 29.8521 -5.86402 29.8521C-6.58801 29.8521 -7.31202 29.6021 -7.86402 29.1021C-8.41602 28.6021 -9.14001 28.3521 -9.86402 28.3521C-10.588 28.3521 -11.312 28.6021 -11.864 29.1021C-12.416 29.6021 -13.14 29.8521 -13.864 29.8521M58.124 29.8661C57.4 29.8661 56.676 29.6161 56.124 29.1161C55.572 28.6161 54.848 28.3661 54.124 28.3661C53.4 28.3661 52.676 28.6161 52.124 29.1161C51.572 29.6161 50.848 29.8661 50.124 29.8661C49.4 29.8661 48.676 29.6161 48.124 29.1161C47.572 28.6161 46.848 28.3661 46.124 28.3661C45.4 28.3661 44.676 28.6161 44.124 29.1161C43.572 29.6161 42.848 29.8661 42.124 29.8661C41.4 29.8661 40.676 29.6161 40.124 29.1161C39.572 28.6161 38.848 28.3661 38.124 28.3661C37.4 28.3661 36.676 28.6161 36.124 29.1161C35.572 29.6161 34.848 29.8661 34.124 29.8661M34.125 29.8751C33.401 29.8751 32.677 29.6251 32.125 29.1251C31.573 28.6251 30.849 28.3751 30.125 28.3751C29.401 28.3751 28.677 28.6251 28.125 29.1251C27.573 29.6251 26.849 29.8751 26.125 29.8751C25.401 29.8751 24.677 29.6251 24.125 29.1251C23.573 28.6251 22.849 28.3751 22.125 28.3751C21.401 28.3751 20.677 28.6251 20.125 29.1251C19.573 29.6251 18.849 29.8751 18.125 29.8751C17.401 29.8751 16.677 29.6251 16.125 29.1251C15.573 28.6251 14.849 28.3751 14.125 28.3751C13.401 28.3751 12.677 28.6251 12.125 29.1251C11.573 29.6251 10.849 29.8751 10.125 29.8751" stroke="#222222" stroke-width="2"/>
<path d="M10.136 24.8521C9.41198 24.8521 8.68798 24.6021 8.13598 24.1021C7.58398 23.6021 6.85998 23.3521 6.13598 23.3521C5.41199 23.3521 4.68798 23.6021 4.13598 24.1021C3.58398 24.6021 2.85999 24.8521 2.13598 24.8521C1.41199 24.8521 0.687984 24.6021 0.135984 24.1021C-0.416016 23.6021 -1.14001 23.3521 -1.86402 23.3521C-2.58801 23.3521 -3.31202 23.6021 -3.86402 24.1021C-4.41602 24.6021 -5.14001 24.8521 -5.86402 24.8521C-6.58801 24.8521 -7.31202 24.6021 -7.86402 24.1021C-8.41602 23.6021 -9.14001 23.3521 -9.86402 23.3521C-10.588 23.3521 -11.312 23.6021 -11.864 24.1021C-12.416 24.6021 -13.14 24.8521 -13.864 24.8521M58.124 24.8661C57.4 24.8661 56.676 24.6161 56.124 24.1161C55.572 23.6161 54.848 23.3661 54.124 23.3661C53.4 23.3661 52.676 23.6161 52.124 24.1161C51.572 24.6161 50.848 24.8661 50.124 24.8661C49.4 24.8661 48.676 24.6161 48.124 24.1161C47.572 23.6161 46.848 23.3661 46.124 23.3661C45.4 23.3661 44.676 23.6161 44.124 24.1161C43.572 24.6161 42.848 24.8661 42.124 24.8661C41.4 24.8661 40.676 24.6161 40.124 24.1161C39.572 23.6161 38.848 23.3661 38.124 23.3661C37.4 23.3661 36.676 23.6161 36.124 24.1161C35.572 24.6161 34.848 24.8661 34.124 24.8661M34.125 24.8751C33.401 24.8751 32.677 24.6251 32.125 24.1251C31.573 23.6251 30.849 23.3751 30.125 23.3751C29.401 23.3751 28.677 23.6251 28.125 24.1251C27.573 24.6251 26.849 24.8751 26.125 24.8751C25.401 24.8751 24.677 24.6251 24.125 24.1251C23.573 23.6251 22.849 23.3751 22.125 23.3751C21.401 23.3751 20.677 23.6251 20.125 24.1251C19.573 24.6251 18.849 24.8751 18.125 24.8751C17.401 24.8751 16.677 24.6251 16.125 24.1251C15.573 23.6251 14.849 23.3751 14.125 23.3751C13.401 23.3751 12.677 23.6251 12.125 24.1251C11.573 24.6251 10.849 24.8751 10.125 24.8751" stroke="#222222" stroke-width="2"/>
</g>
</g>
</g>
<defs>
<clipPath id="clip0_126_2">
<rect width="45" height="45" fill="white"/>
</clipPath>
</defs>
</svg>
