<svg width="45" height="45" viewBox="0 0 45 45" fill="none" xmlns="http://www.w3.org/2000/svg">
<g clip-path="url(#clip0_123_159)">
<mask id="mask0_123_159" style="mask-type:luminance" maskUnits="userSpaceOnUse" x="0" y="0" width="45" height="45">
<path d="M45 0H0V45H45V0Z" fill="white"/>
</mask>
<g mask="url(#mask0_123_159)">
<path d="M15.125 8.25C21.752 8.25 27.125 14.112 27.125 19.974C27.125 24.77 25.497 29.529 22.24 34.25H8.01C4.753 29.529 3.125 24.77 3.125 19.974C3.125 13.499 8.498 8.25 15.125 8.25Z" stroke="#222222" stroke-width="2"/>
<path d="M15.125 24.875C16.437 24.875 17.5 25.938 17.5 27.25C17.5 28.562 16.437 29.625 15.125 29.625C13.813 29.625 12.75 28.562 12.75 27.25C12.75 25.938 13.813 24.875 15.125 24.875Z" stroke="#222222" stroke-width="2"/>
<path d="M23.125 20.25C23.125 15.832 19.543 12.25 15.125 12.25C10.707 12.25 7.125 15.832 7.125 20.25C17.792 20.25 23.125 20.25 23.125 20.25Z" stroke="#222222" stroke-width="2"/>
<path d="M15.125 20.25L18.125 16.25" stroke="#222222" stroke-width="2" stroke-linejoin="round"/>
<path d="M15.125 35.25V39.25" stroke="#222222" stroke-width="2"/>
</g>
</g>
<defs>
<clipPath id="clip0_123_159">
<rect width="45" height="45" fill="white"/>
</clipPath>
</defs>
</svg>
