<svg width="45" height="45" viewBox="0 0 45 45" fill="none" xmlns="http://www.w3.org/2000/svg">
<g clip-path="url(#clip0_123_30)">
<mask id="mask0_123_30" style="mask-type:luminance" maskUnits="userSpaceOnUse" x="0" y="0" width="45" height="45">
<path d="M45 0H0V45H45V0Z" fill="white"/>
</mask>
<g mask="url(#mask0_123_30)">
<path d="M13.9094 31.5212H19.8404V33.4982H13.9094V31.5212ZM9.95543 33.4982V35.4752H23.7944V33.4982H21.8174V31.5212L22.8876 31.5173L23.1025 31.512C25.7332 31.3999 25.5895 30.3179 22.9311 30.3179L10.5261 30.3271C7.89539 30.4391 8.03774 31.5212 10.6961 31.5212H11.9324V33.4982H9.95543Z" fill="#222222"/>
<path d="M6.98999 11.7514H26.76L26.934 11.7567C28.4905 11.8463 29.7255 13.138 29.7255 14.7169V26.5789L29.7202 26.7529C29.6306 28.3094 28.3389 29.5444 26.76 29.5444H6.98999L6.81601 29.5391C5.25945 29.4495 4.02449 28.1579 4.02449 26.5789V14.7169L4.02976 14.5429C4.11938 12.9864 5.41102 11.7514 6.98999 11.7514ZM21.8175 31.5214H26.76L26.9748 31.5175C29.6055 31.4054 31.7025 29.2373 31.7025 26.5789V14.7169L31.6985 14.5021C31.5865 11.8714 29.4184 9.77441 26.76 9.77441H6.98999L6.77515 9.77837C4.14442 9.8904 2.04749 12.0585 2.04749 14.7169V26.5789L2.05144 26.7937C2.16347 29.4245 4.33158 31.5214 6.98999 31.5214H11.9325H21.8175Z" fill="#222222"/>
</g>
</g>
<defs>
<clipPath id="clip0_123_30">
<rect width="45" height="45" fill="white"/>
</clipPath>
</defs>
</svg>
