<svg width="20" height="17" viewBox="0 0 20 17" fill="none" xmlns="http://www.w3.org/2000/svg">
<path d="M10 0.1875C8.09636 0.1875 6.23546 0.67502 4.65264 1.58841C3.06982 2.5018 1.83616 3.80003 1.10766 5.31894C0.37917 6.83785 0.188563 8.50922 0.559946 10.1217C0.931329 11.7342 1.84802 13.2153 3.1941 14.3778C4.54018 15.5403 6.25519 16.332 8.12226 16.6528C9.98933 16.9735 11.9246 16.8089 13.6833 16.1797C15.4421 15.5506 16.9453 14.4852 18.0029 13.1182C19.0605 11.7512 19.625 10.1441 19.625 8.5C19.625 6.29539 18.6109 4.18107 16.8059 2.62217C15.0009 1.06328 12.5527 0.1875 10 0.1875ZM18.14 7.37781H18.0919C17.2709 7.78809 16.4022 8.12244 15.5 8.37531C15.565 6.1499 14.8769 3.95645 13.52 2.06375C14.7321 2.55864 15.7863 3.30119 16.5913 4.22713C17.3963 5.15308 17.9279 6.2345 18.14 7.37781ZM5.875 8.5C5.875 5.04437 7.3875 2.06969 9.3125 1.48781V9.09375C8.15512 9.06354 7.00388 8.93627 5.875 8.71375V8.5ZM9.3125 10.2812V15.53C7.6625 15.0253 6.30813 12.7691 5.96438 9.94281C7.06713 10.1383 8.1873 10.2515 9.3125 10.2812ZM10.6875 15.53V10.2812C11.8127 10.2515 12.9329 10.1383 14.0356 9.94281C13.6919 12.7513 12.3375 15.0312 10.6875 15.5122V15.53ZM10.6875 9.09375V1.48781C12.6125 2.08156 14.125 5.05031 14.125 8.5V8.69594C12.9968 8.92446 11.8456 9.05769 10.6875 9.09375ZM6.48 2.06375C5.12311 3.95645 4.435 6.1499 4.5 8.37531C3.59631 8.12851 2.72524 7.80013 1.90125 7.39563H1.85313C2.06283 6.24853 2.59401 5.16309 3.40043 4.23381C4.20684 3.30452 5.26405 2.55955 6.48 2.06375ZM1.75 8.66625C2.64409 9.06351 3.58132 9.3837 4.54813 9.62219C4.64043 11.5178 5.30396 13.3597 6.47313 14.9659C5.08514 14.3994 3.90772 13.5096 3.07331 12.3967C2.23891 11.2838 1.78062 9.99185 1.75 8.66625ZM13.52 14.9362C14.6835 13.3387 15.3468 11.5076 15.445 9.62219C16.4142 9.38407 17.3537 9.06387 18.25 8.66625C18.2124 9.98738 17.7502 11.2735 16.9149 12.3807C16.0796 13.488 14.9041 14.3728 13.52 14.9362Z" fill="black"/>
</svg>
