<svg width="18" height="10" viewBox="0 0 18 10" fill="none" xmlns="http://www.w3.org/2000/svg">
<path d="M16.7559 0.637177H1.24403C1.11281 0.637177 0.986968 0.671928 0.894181 0.733786C0.801395 0.795643 0.749268 0.87954 0.749268 0.96702C0.749268 1.0545 0.801395 1.1384 0.894181 1.20026C0.986968 1.26211 1.11281 1.29686 1.24403 1.29686H16.7559C16.8871 1.29686 17.013 1.26211 17.1058 1.20026C17.1985 1.1384 17.2507 1.0545 17.2507 0.96702C17.2507 0.87954 17.1985 0.795643 17.1058 0.733786C17.013 0.671928 16.8871 0.637177 16.7559 0.637177ZM16.7559 4.67015H1.24403C1.11281 4.67015 0.986968 4.7049 0.894181 4.76675C0.801395 4.82861 0.749268 4.91251 0.749268 4.99999C0.749268 5.08747 0.801395 5.17137 0.894181 5.23322C0.986968 5.29508 1.11281 5.32983 1.24403 5.32983H16.7559C16.8871 5.32983 17.013 5.29508 17.1058 5.23322C17.1985 5.17137 17.2507 5.08747 17.2507 4.99999C17.2507 4.91251 17.1985 4.82861 17.1058 4.76675C17.013 4.7049 16.8871 4.67015 16.7559 4.67015ZM16.7559 8.70311H1.24403C1.11281 8.70311 0.986968 8.73787 0.894181 8.79972C0.801395 8.86158 0.749268 8.94548 0.749268 9.03296C0.749268 9.12044 0.801395 9.20434 0.894181 9.26619C0.986968 9.32805 1.11281 9.3628 1.24403 9.3628H16.7559C16.8871 9.3628 17.013 9.32805 17.1058 9.26619C17.1985 9.20434 17.2507 9.12044 17.2507 9.03296C17.2507 8.94548 17.1985 8.86158 17.1058 8.79972C17.013 8.73787 16.8871 8.70311 16.7559 8.70311Z" fill="black"/>
</svg>
