<svg width="45" height="45" viewBox="0 0 45 45" fill="none" xmlns="http://www.w3.org/2000/svg">
<g clip-path="url(#clip0_123_116)">
<mask id="mask0_123_116" style="mask-type:luminance" maskUnits="userSpaceOnUse" x="0" y="0" width="45" height="45">
<path d="M45 0H0V45H45V0Z" fill="white"/>
</mask>
<g mask="url(#mask0_123_116)">
<mask id="mask1_123_116" style="mask-type:luminance" maskUnits="userSpaceOnUse" x="7" y="14" width="18" height="18">
<path d="M16.127 14.335C11.341 14.335 7.46204 18.214 7.46204 23C7.46204 27.786 11.341 31.666 16.127 31.666C20.913 31.666 24.792 27.786 24.792 23C24.792 18.214 20.913 14.335 16.127 14.335Z" fill="white"/>
</mask>
<g mask="url(#mask1_123_116)">
<path d="M49 59.8751C49 57.1511 49 54.4151 49 51.6041C49 48.7931 49 45.9051 49 42.8751C49 39.7801 49.412 35.9171 49.618 32.5091C49.824 29.1011 49.823 26.1491 49 24.8751C48.934 24.7741 48.261 24.7741 47.565 24.7991C46.87 24.8241 46.152 24.8751 46 24.8751C41.89 24.8751 41.201 23.1711 39 21.8751C36.669 20.5021 35.85 19.8291 33 19.8751C27.119 19.9701 24.765 24.9761 20 24.8751C15.157 24.7731 11.326 18.7321 7.00004 18.8751C3.07804 19.0051 -0.624961 24.8521 -4.99996 24.8751C-10.182 24.9031 -12.762 18.8561 -17 20.8751C-15.273 34.2591 -19.503 46.5881 -17 52.8751C-16.48 54.1811 -13.791 55.6811 -12 56.8751C-9.47396 58.5601 -7.61296 59.8831 -4.99996 59.8751C-0.388961 59.8611 2.55704 53.8171 8.00004 53.8751C11.878 53.9161 16.521 59.9831 21 59.8751C26.362 59.7451 28.153 53.6901 34 53.8751C39.665 54.0551 41.721 61.8671 49 59.8751Z" stroke="#222222" stroke-width="2"/>
</g>
<path d="M4 9.875H28C28.552 9.875 29 10.323 29 10.875V34.875C29 35.427 28.552 35.875 28 35.875H4C3.448 35.875 3 35.427 3 34.875V10.875C3 10.323 3.448 9.875 4 9.875Z" stroke="#222222" stroke-width="2"/>
<path d="M16 14.875C20.418 14.875 24 18.457 24 22.875C24 27.293 20.418 30.875 16 30.875C11.582 30.875 8 27.293 8 22.875C8 18.457 11.582 14.875 16 14.875Z" stroke="#222222" stroke-width="2"/>
<path d="M7 12.875C7.552 12.875 8 13.323 8 13.875C8 14.427 7.552 14.875 7 14.875C6.448 14.875 6 14.427 6 13.875C6 13.323 6.448 12.875 7 12.875Z" fill="black"/>
</g>
</g>
<defs>
<clipPath id="clip0_123_116">
<rect width="45" height="45" fill="white"/>
</clipPath>
</defs>
</svg>
